<svg width="13" height="18" viewBox="0 0 13 18" fill="none" xmlns="http://www.w3.org/2000/svg">
<path fill-rule="evenodd" clip-rule="evenodd" d="M6.23077 0C9.67193 0 12.4615 2.98477 12.4615 6.66667C12.4615 9.12127 10.3846 12.899 6.23077 18L5.75166 17.406L5.26239 16.7867C1.75413 12.2958 0 8.92247 0 6.66667C0 2.98477 2.78961 0 6.23077 0ZM6.23077 1.125C3.42857 1.125 1.125 3.58972 1.125 6.66667C1.125 8.51323 2.64441 11.5108 5.70951 15.5252L6.23025 16.1985L6.31575 16.0898L6.77334 15.4968C9.75069 11.5921 11.2635 8.65479 11.334 6.80056L11.3365 6.66667C11.3365 3.58972 9.03297 1.125 6.23077 1.125ZM6.23077 3.46154C7.76017 3.46154 9 4.70136 9 6.23077C9 7.76017 7.76017 9 6.23077 9C4.70136 9 3.46154 7.76017 3.46154 6.23077C3.46154 4.70136 4.70136 3.46154 6.23077 3.46154ZM6.23077 4.58654C5.32269 4.58654 4.58654 5.32269 4.58654 6.23077C4.58654 7.13885 5.32269 7.875 6.23077 7.875C7.13885 7.875 7.875 7.13885 7.875 6.23077C7.875 5.32269 7.13885 4.58654 6.23077 4.58654Z" fill="#6C869A"/>
</svg>
