<svg width="12" height="18" viewBox="0 0 12 18" fill="none" xmlns="http://www.w3.org/2000/svg">
<path fill-rule="evenodd" clip-rule="evenodd" d="M10.5 0C11.3284 0 12 0.671573 12 1.5V16.5C12 17.3284 11.3284 18 10.5 18H1.5C0.671573 18 0 17.3284 0 16.5V1.5C0 0.671573 0.671573 0 1.5 0H10.5ZM10.5 1.125H1.5C1.31591 1.125 1.16279 1.25766 1.13104 1.43259L1.125 1.5V16.5C1.125 16.6841 1.25766 16.8372 1.43259 16.869L1.5 16.875H10.5C10.6841 16.875 10.8372 16.7423 10.869 16.5674L10.875 16.5V1.5C10.875 1.31591 10.7423 1.16279 10.5674 1.13104L10.5 1.125ZM6 15.75C6.62132 15.75 7.125 15.2463 7.125 14.625C7.125 14.0037 6.62132 13.5 6 13.5C5.37868 13.5 4.875 14.0037 4.875 14.625C4.875 15.2463 5.37868 15.75 6 15.75Z" fill="#6C869A"/>
</svg>
