<svg width="18" height="13" viewBox="0 0 18 13" fill="none" xmlns="http://www.w3.org/2000/svg">
<path fill-rule="evenodd" clip-rule="evenodd" d="M15 0.1875H3C1.87216 0.1875 0.9375 1.06375 0.9375 2.15625V10.5938C0.9375 11.6863 1.87216 12.5625 3 12.5625H15C16.1278 12.5625 17.0625 11.6863 17.0625 10.5938V2.15625C17.0625 1.06375 16.1278 0.1875 15 0.1875ZM15 1.3125C15.5222 1.3125 15.9375 1.70188 15.9375 2.15625V10.5938C15.9375 11.0481 15.5222 11.4375 15 11.4375H3C2.47784 11.4375 2.0625 11.0481 2.0625 10.5938V2.15625C2.0625 1.70188 2.47784 1.3125 3 1.3125H15ZM9 7.57499L14.4 4.19999V2.84999L9 6.22499L3.6 2.84999V4.19999L9 7.57499Z" fill="#6C869A"/>
</svg>
