<svg width="17" height="17" viewBox="0 0 17 17" fill="none" xmlns="http://www.w3.org/2000/svg">
<path fill-rule="evenodd" clip-rule="evenodd" d="M8.57038 2.12859L8.58213 1.00314L16.0851 0.924805L16.0068 8.42776L14.8813 8.43951L14.9397 2.8576L7.99356 9.80384L7.20606 9.01634L14.1522 2.0701L8.57038 2.12859ZM1.75 3.24997H7V4.37497H1.75C1.54289 4.37497 1.375 4.54286 1.375 4.74997V15.25C1.375 15.4571 1.54289 15.625 1.75 15.625H12.25C12.4571 15.625 12.625 15.4571 12.625 15.25V9.99997H13.75V15.25C13.75 16.0784 13.0784 16.75 12.25 16.75H1.75C0.921573 16.75 0.25 16.0784 0.25 15.25V4.74997C0.25 3.92154 0.921573 3.24997 1.75 3.24997Z" fill="#6C869A"/>
</svg>
